<?xml version="1.0" encoding="utf-8"?>
<!-- Generator: Adobe Illustrator 24.3.0, SVG Export Plug-In . SVG Version: 6.00 Build 0)  -->
<svg version="1.1" id="Logo" xmlns="http://www.w3.org/2000/svg" xmlns:xlink="http://www.w3.org/1999/xlink" x="0px" y="0px"
	 viewBox="0 0 327.4 88.5" style="enable-background:new 0 0 327.4 88.5;" xml:space="preserve">
<style type="text/css">
	.st0{fill:#FFFFFF;}
</style>
<g id="welesgard" class="st0">
	<path d="M256,54.9c0,1.8-0.3,3.5-1,4.9c-0.6,1.5-1.5,2.7-2.6,3.8c-1.1,1-2.4,1.8-3.8,2.3c-1.4,0.5-2.9,0.8-4.5,0.8
		c-1.7,0-3.4-0.4-5.2-1.1c-1.7-0.8-3.2-1.9-4.4-3.4l4-2.9c0.5,0.7,1.3,1.4,2.3,2c1,0.6,2,0.8,3.1,0.8c2.4,0,4.2-0.7,5.5-2
		c1.3-1.3,2-2.9,2-4.8v-1.5c-1.1,1.2-2.2,2.1-3.5,2.6c-1.2,0.6-2.7,0.9-4.3,0.9c-1.5,0-2.9-0.3-4.2-0.8c-1.3-0.5-2.5-1.3-3.5-2.3
		c-1-1-1.8-2.2-2.4-3.7c-0.6-1.4-0.9-3-0.9-4.8c0-1.8,0.3-3.5,0.9-4.9c0.6-1.5,1.5-2.7,2.6-3.7c1.1-1,2.3-1.8,3.7-2.3
		c1.4-0.5,2.9-0.8,4.4-0.8c3.1,0,5.4,1.1,7.1,3.3h0.1v-2.7h4.6V54.9z M239.7,50.8c1.3,1.4,2.9,2,5,2c1.9,0,3.6-0.7,4.8-2
		c1.3-1.4,1.9-3,1.9-5c0-1-0.2-1.9-0.5-2.8c-0.3-0.9-0.8-1.6-1.5-2.3c-0.6-0.7-1.4-1.2-2.2-1.5c-0.8-0.4-1.7-0.5-2.6-0.5
		c-1.9,0-3.5,0.7-4.9,2.1c-1.3,1.4-2,3-2,5C237.8,47.8,238.4,49.4,239.7,50.8" />
	<path d="M280.2,54.1L280.2,54.1c-0.9,1-1.9,1.9-3.3,2.5c-1.3,0.6-2.8,0.9-4.3,0.9c-1.8,0-3.4-0.3-4.9-1c-1.5-0.7-2.7-1.6-3.8-2.7
		c-1-1.1-1.8-2.4-2.4-3.9c-0.5-1.4-0.8-2.9-0.8-4.4c0-1.4,0.3-2.8,0.8-4.3c0.6-1.4,1.4-2.7,2.4-3.9c1.1-1.2,2.4-2.1,3.9-2.8
		c1.5-0.7,3.1-1,4.9-1c1.6,0,3.1,0.3,4.3,0.9c1.3,0.6,2.2,1.4,2.9,2.4h0.1v-2.8h4.9v22.7h-4.9V54.1z M266.6,48.3
		c0.4,0.9,0.9,1.7,1.6,2.4c0.7,0.7,1.4,1.2,2.3,1.6c0.9,0.4,1.8,0.6,2.8,0.6c0.9,0,1.8-0.2,2.7-0.6c0.9-0.4,1.6-0.9,2.3-1.6
		c0.7-0.7,1.2-1.5,1.6-2.4c0.4-0.9,0.6-1.8,0.6-2.8c0-1-0.2-1.9-0.6-2.8c-0.4-0.9-0.9-1.7-1.6-2.4c-0.7-0.7-1.4-1.2-2.3-1.6
		c-0.9-0.4-1.8-0.6-2.7-0.6c-1,0-1.9,0.2-2.8,0.6c-0.9,0.4-1.7,0.9-2.3,1.6c-0.7,0.7-1.2,1.5-1.6,2.4c-0.4,0.9-0.6,1.8-0.6,2.8
		C266.1,46.5,266.2,47.4,266.6,48.3"/>
	<path d="M290,34.1h4.6v2.5h0.1c0.4-0.9,1-1.7,1.8-2.2c0.8-0.6,1.7-0.8,2.7-0.8c1.1,0,2,0.2,2.7,0.7l-1.7,4.8
		c-0.2-0.2-0.5-0.3-0.9-0.5c-0.4-0.1-0.7-0.2-0.9-0.2c-0.9,0-1.7,0.3-2.4,1c-0.7,0.6-1,1.5-1,2.5v15H290V34.1z"/>
	<path d="M322.6,54.1L322.6,54.1c-0.9,1-1.9,1.9-3.3,2.5c-1.3,0.6-2.8,0.9-4.3,0.9c-1.8,0-3.4-0.3-4.9-1c-1.5-0.7-2.7-1.6-3.8-2.7
		c-1-1.1-1.8-2.4-2.3-3.9c-0.5-1.4-0.8-2.9-0.8-4.4c0-1.4,0.3-2.8,0.8-4.3c0.6-1.4,1.4-2.7,2.5-3.9c1.1-1.2,2.3-2.1,3.8-2.8
		c1.5-0.7,3.1-1,4.9-1c1.6,0,3.1,0.3,4.3,0.9c1.3,0.6,2.2,1.4,2.9,2.4h0.1v-9.5h4.9v29.5h-4.9V54.1z M308.9,48.3
		c0.4,0.9,0.9,1.7,1.6,2.4c0.7,0.7,1.4,1.2,2.3,1.6c0.9,0.4,1.8,0.6,2.8,0.6c0.9,0,1.9-0.2,2.7-0.6c0.9-0.4,1.7-0.9,2.3-1.6
		c0.7-0.7,1.2-1.5,1.6-2.4c0.4-0.9,0.6-1.8,0.6-2.8c0-1-0.2-1.9-0.6-2.8c-0.4-0.9-0.9-1.7-1.6-2.4c-0.7-0.7-1.4-1.2-2.3-1.6
		c-0.9-0.4-1.8-0.6-2.7-0.6c-1,0-1.9,0.2-2.8,0.6c-0.9,0.4-1.7,0.9-2.3,1.6c-0.7,0.7-1.2,1.5-1.6,2.4c-0.4,0.9-0.6,1.8-0.6,2.8
		C308.4,46.5,308.6,47.4,308.9,48.3"/>
	<polygon points="135.6,33.5 125,57.5 122.4,57.5 117.6,46.5 117.5,46.5 112.7,57.5 110.1,57.5 99.5,33.5 105.2,33.5 111.9,49.2 
		112,49.2 117.6,36.9 123.1,49.2 123.2,49.2 130,33.5 	"/>
	<path d="M160.4,51.9c-1.4,1.7-3,3.1-4.8,4c-1.8,1-3.8,1.5-5.8,1.5c-1.9,0-3.7-0.3-5.2-1c-1.6-0.7-2.9-1.6-4-2.7
		c-1.1-1.1-1.9-2.4-2.5-3.9c-0.6-1.4-0.8-2.9-0.8-4.4c0-1.5,0.3-3,0.8-4.4c0.6-1.4,1.4-2.7,2.5-3.9c1.1-1.1,2.4-2,4-2.7
		c1.6-0.7,3.3-1,5.2-1c1.2,0,2.6,0.3,3.9,0.8c1.4,0.5,2.6,1.3,3.9,2.4c1.2,1.1,2.2,2.4,2.9,4c0.7,1.6,1.1,3.5,1.1,5.6v0.9h-18.9
		c0.1,1.7,0.9,3.1,2.2,4.2c1.4,1.2,3,1.7,4.7,1.7c2.6,0,4.8-1.2,6.6-3.5L160.4,51.9z M155.9,43.1c-0.5-1.7-1.4-3-2.6-4
		c-1.2-0.9-2.6-1.4-4.2-1.4c-1.6,0-2.9,0.5-4.1,1.4c-1.2,0.9-1.9,2.2-2.3,3.9H155.9z"/>
	<path d="M172.4,27.4v20.3c0,1.3,0.1,2.2,0.4,2.8c0.3,0.6,0.8,1.1,1.6,1.6l2.6,1.5l-2.2,3.8c-2.7-1.3-4.6-2.6-5.7-3.8
		c-1.1-1.2-1.6-2.9-1.6-5.1V27.4H172.4z"/>
	<path d="M202.9,51.9c-1.4,1.7-3,3.1-4.8,4c-1.8,1-3.7,1.5-5.8,1.5c-1.9,0-3.6-0.3-5.2-1c-1.6-0.7-2.9-1.6-4-2.7
		c-1.1-1.1-1.9-2.4-2.5-3.9c-0.6-1.4-0.9-2.9-0.9-4.4c0-1.5,0.3-3,0.9-4.4c0.6-1.4,1.4-2.7,2.5-3.9c1.1-1.1,2.4-2,4-2.7
		c1.6-0.7,3.3-1,5.2-1c1.3,0,2.6,0.3,3.9,0.8c1.4,0.5,2.6,1.3,3.8,2.4c1.2,1.1,2.2,2.4,2.9,4c0.7,1.6,1.1,3.5,1.1,5.6v0.9h-18.9
		c0.1,1.7,0.9,3.1,2.3,4.2c1.4,1.2,2.9,1.7,4.7,1.7c2.6,0,4.8-1.2,6.6-3.5L202.9,51.9z M198.4,43.1c-0.5-1.7-1.4-3-2.6-4
		c-1.2-0.9-2.6-1.4-4.2-1.4c-1.6,0-2.9,0.5-4.1,1.4c-1.2,0.9-1.9,2.2-2.3,3.9H198.4z"/>
	<path d="M209,51.8l4.2-2.3c1,2.3,2.9,3.5,5.7,3.5c2.7,0,4-1,4-2.4c0-0.8-0.4-1.4-1.2-1.9c-0.8-0.5-2.2-1-4.2-1.5
		c-2.2-0.6-3.6-1.1-5.1-2.1c-1.5-1-2.3-2.6-2.3-4.7c0-2.1,0.8-3.8,2.4-5c1.6-1.3,3.5-1.9,5.8-1.9c4,0,7.1,1.9,8.8,5.2l-4.1,2.2
		c-1-2-2.6-3-4.7-3c-2,0-3.2,0.9-3.2,2.3c0,0.7,0.3,1.3,1,1.8c0.7,0.4,1.9,0.9,3.7,1.4l1.7,0.5c0.4,0.1,0.9,0.3,1.6,0.6
		c0.7,0.2,1.2,0.5,1.6,0.7c0.7,0.4,1.9,1.3,2.3,2c0.5,0.8,0.9,1.9,0.9,3.3c0,2.1-0.8,3.8-2.5,5.1c-1.7,1.3-3.8,1.9-6.5,1.9
		C213.8,57.5,210.4,55.3,209,51.8"/>
</g>
<g id="Sign">
	<polygon class="st0" points="66.5,0 45.8,19.6 45.8,41.8 66.5,21.3 	"/>
	<polygon class="st0" points="43.7,19.6 22.9,0 22.9,21.3 43.7,41.8 	"/>
	<polygon class="st0" points="47.6,45.1 68.1,65.9 89.4,65.9 69.8,45.1 	"/>
	<polygon class="st0" points="69.8,43 89.4,22.3 68.1,22.3 47.6,43 	"/>
	<polygon class="st0" points="19.6,45.1 0,65.9 21.3,65.9 41.8,45.1 	"/>
	<polygon class="st0" points="41.8,43 21.3,22.3 0,22.3 19.6,43 	"/>
	<polygon class="st0" points="66.5,67.2 45.8,46.7 45.8,68.9 66.5,88.5 	"/>
	<polygon class="st0" points="43.7,46.7 22.9,67.2 22.9,88.5 43.7,68.9 	"/>
</g>
</svg>
